<svg id="Layer_1" data-name="Layer 1" xmlns="http://www.w3.org/2000/svg" viewBox="0 0 1000 1000"><defs><style>.cls-1,.cls-18{fill:#b8bcc4;}.cls-1{opacity:0.39;}.cls-2{fill:#bababa;}.cls-15,.cls-3{opacity:0.1;}.cls-4{fill:#a4f3f7;}.cls-5{opacity:0.3;}.cls-6{opacity:0.5;}.cls-17,.cls-7{opacity:0.7;}.cls-8{fill:#e4f9f7;}.cls-9{fill:#2da59c;}.cls-10{fill:#06473f;}.cls-11{fill:#bbfcf7;opacity:0.4;}.cls-12{fill:#03473f;}.cls-13{fill:#137a6e;}.cls-14{fill:#096057;}.cls-15,.cls-16,.cls-17{fill:#fff;}.cls-16{opacity:0.2;}.cls-18{opacity:0.3;}.cls-19,.cls-28,.cls-29{fill:#f2f2f2;}.cls-19{opacity:0.33;}.cls-20,.cls-21{fill:#182b4c;}.cls-20{opacity:0.45;}.cls-21{opacity:0.28;}.cls-22{fill:#a3a19f;}.cls-23{fill:#93908c;}.cls-24{fill:silver;}.cls-25{fill:#9b948f;}.cls-26{fill:#bcbcbc;}.cls-27{fill:#6d6c6b;}.cls-28{opacity:0.57;}.cls-29{opacity:0.62;}</style></defs><circle class="cls-1" cx="507.34" cy="463.96" r="348.36"/><path class="cls-2" d="M507.34,813.35A349.39,349.39,0,1,1,754.39,711,347.1,347.1,0,0,1,507.34,813.35Zm0-696.72C315.82,116.63,160,272.44,160,464S315.82,811.29,507.34,811.29,854.67,655.48,854.67,464,698.86,116.63,507.34,116.63Z"/><g class="cls-3"><path class="cls-4" d="M241.35,477a6.55,6.55,0,1,1-6.55-6.56A6.55,6.55,0,0,1,241.35,477Z"/></g><g class="cls-5"><path class="cls-4" d="M239.88,476.87a5.05,5.05,0,1,1-5-5.05A5,5,0,0,1,239.88,476.87Z"/></g><g class="cls-5"><path class="cls-4" d="M238.83,476.87a4,4,0,1,1-4-4A4,4,0,0,1,238.83,476.87Z"/></g><g class="cls-5"><path class="cls-4" d="M238,476.78a3.08,3.08,0,1,1-3.07-3.07A3.08,3.08,0,0,1,238,476.78Z"/></g><g class="cls-6"><path class="cls-4" d="M237.33,476.78a2.47,2.47,0,1,1-2.47-2.46A2.47,2.47,0,0,1,237.33,476.78Z"/></g><g class="cls-7"><path class="cls-8" d="M236.72,476.78a1.85,1.85,0,1,1-1.85-1.84A1.85,1.85,0,0,1,236.72,476.78Z"/></g><circle class="cls-9" cx="507.28" cy="457.33" r="301.51" transform="translate(-174.8 492.65) rotate(-45)"/><path class="cls-10" d="M566.67,161.93A300.3,300.3,0,0,1,709,303.81C781,454,717.64,634.05,567.5,706.05a300.15,300.15,0,0,1-189.66,23.78,300.91,300.91,0,0,0,259.93-.4c150.15-72,213.49-252.1,141.48-402.25A301.05,301.05,0,0,0,566.67,161.93Z"/><path class="cls-11" d="M313.31,636.31a302.94,302.94,0,0,1-22-62.61c-30.94-93.63-4.64-195.55,63.77-262.74a301.77,301.77,0,0,1,348.77-82.19c-88-75.47-215.63-96.4-326.85-43.06-150.14,72-213.48,252.1-141.47,402.24A300.3,300.3,0,0,0,388.7,734.73,300.53,300.53,0,0,1,313.31,636.31Z"/><polygon class="cls-12" points="684.53 563.69 696.79 599.56 686.04 615.87 684.53 563.69"/><polygon class="cls-12" points="270.4 337.94 285.64 330.99 300.61 339.59 270.4 337.94"/><polygon class="cls-12" points="522.55 159.49 560.4 179.83 589.29 174.56 522.55 159.49"/><polygon class="cls-12" points="480.64 179.83 560.4 179.83 512.66 169.01 480.64 179.83"/><polygon class="cls-13" points="522.55 159.49 512.66 169.01 560.4 179.83 522.55 159.49"/><polygon class="cls-13" points="480.64 179.83 507.05 200.56 560.4 179.83 480.64 179.83"/><polygon class="cls-14" points="518.35 214.25 560.4 179.83 507.05 200.56 518.35 214.25"/><polygon class="cls-12" points="547.74 205.75 518.35 214.25 560.4 179.83 547.74 205.75"/><polygon class="cls-12" points="551.64 242.62 538.31 238.17 555.92 229.36 551.64 242.62"/><polygon class="cls-12" points="571.73 570.47 587.44 542.14 618.31 572.52 571.73 570.47"/><polygon class="cls-14" points="587.44 542.14 609.58 548.83 618.31 572.52 587.44 542.14"/><polygon class="cls-14" points="586.48 587.98 618.31 572.52 571.73 570.47 586.48 587.98"/><polygon class="cls-12" points="587.44 542.14 565.68 546.77 587.44 525.91 587.44 542.14"/><polygon class="cls-14" points="587.44 542.14 565.68 546.77 571.73 570.47 587.44 542.14"/><polygon class="cls-13" points="587.44 525.91 609.58 548.83 587.44 542.14 587.44 525.91"/><polygon class="cls-12" points="609.58 548.83 641.64 534.03 618.31 572.52 609.58 548.83"/><polygon class="cls-12" points="587.44 525.91 613.06 518.45 609.58 548.83 587.44 525.91"/><polygon class="cls-14" points="641.64 534.03 613.06 518.45 609.58 548.83 641.64 534.03"/><polygon class="cls-14" points="587.44 525.91 575.3 504.39 565.68 546.77 587.44 525.91"/><polygon class="cls-13" points="613.06 518.45 616.36 498.62 575.3 504.39 587.44 525.91 613.06 518.45"/><polygon class="cls-13" points="575.3 504.39 558.2 520.75 565.68 546.77 575.3 504.39"/><polygon class="cls-12" points="558.2 520.75 547.85 542.14 565.68 546.77 558.2 520.75"/><polygon class="cls-12" points="616.36 498.62 641.64 534.03 613.06 518.45 616.36 498.62"/><polygon class="cls-13" points="547.85 542.14 538.17 548.83 571.73 570.47 565.68 546.77 547.85 542.14"/><polygon class="cls-14" points="616.36 498.62 663.66 498.62 641.64 534.03 616.36 498.62"/><polygon class="cls-14" points="538.17 548.83 535.66 574.72 571.73 570.47 538.17 548.83"/><polygon class="cls-14" points="547.85 542.14 525.98 536.35 538.17 548.83 547.85 542.14"/><polygon class="cls-13" points="547.85 542.14 525.98 536.35 558.2 520.75 547.85 542.14"/><polygon class="cls-12" points="558.2 520.75 547.85 490.19 575.3 504.39 558.2 520.75"/><polygon class="cls-13" points="547.85 490.19 575.3 504.39 575.3 491.13 547.85 490.19"/><polygon class="cls-12" points="575.3 491.13 616.36 498.62 575.3 504.39 575.3 491.13"/><polygon class="cls-13" points="616.36 498.62 633.37 479.59 575.3 491.13 616.36 498.62"/><polygon class="cls-12" points="616.36 498.62 633.37 479.59 663.66 498.62 616.36 498.62"/><polygon class="cls-12" points="571.73 570.47 554.95 592.49 586.48 587.98 571.73 570.47"/><polygon class="cls-13" points="571.73 570.47 535.66 574.72 554.95 592.49 571.73 570.47"/><polygon class="cls-13" points="641.64 534.03 661.08 582.22 618.31 572.52 641.64 534.03"/><polygon class="cls-12" points="538.17 548.83 525.98 536.35 535.66 574.72 538.17 548.83"/><polygon class="cls-14" points="547.85 490.19 525.98 536.35 558.2 520.75 547.85 490.19"/><polygon class="cls-12" points="547.85 490.19 515.95 523.15 525.98 536.35 547.85 490.19"/><polygon class="cls-13" points="525.98 536.35 515.95 523.15 535.66 574.72 525.98 536.35"/><polygon class="cls-12" points="618.31 572.52 661.08 582.22 641.64 623.25 618.31 572.52"/><polygon class="cls-13" points="618.31 572.52 641.64 623.25 586.48 587.98 618.31 572.52"/><polygon class="cls-14" points="586.48 587.98 641.64 623.25 554.95 592.49 586.48 587.98"/><polygon class="cls-14" points="661.08 582.22 684.82 542.81 641.64 534.03 661.08 582.22"/><polygon class="cls-12" points="661.08 582.22 684.53 563.69 684.82 542.81 661.08 582.22"/><polygon class="cls-12" points="663.66 498.62 684.82 542.81 641.64 534.03 663.66 498.62"/><polygon class="cls-13" points="663.66 498.62 676.34 487.07 633.37 479.59 663.66 498.62"/><polygon class="cls-14" points="684.82 542.81 676.34 487.07 663.66 498.62 684.82 542.81"/><polygon class="cls-13" points="661.08 582.22 686.04 615.87 684.53 563.69 661.08 582.22"/><polygon class="cls-14" points="641.64 623.25 686.04 615.87 661.08 582.22 641.64 623.25"/><polygon class="cls-12" points="641.64 623.25 687.84 647.09 686.04 615.87 641.64 623.25"/><polygon class="cls-13" points="651.3 665.48 687.84 647.09 641.64 623.25 651.3 665.48"/><polygon class="cls-14" points="695.07 678.34 687.84 647.09 651.3 665.48 695.07 678.34"/><polygon class="cls-12" points="554.95 592.49 641.64 623.25 625.61 626.86 554.95 592.49"/><polygon class="cls-14" points="651.3 665.48 641.64 623.25 625.61 626.86 651.3 665.48"/><polygon class="cls-12" points="324.14 469.03 373.66 478.56 358.39 436.38 324.14 469.03"/><polygon class="cls-12" points="281.48 449.54 310.3 501.7 324.14 469.03 281.48 449.54"/><polygon class="cls-14" points="373.66 478.56 310.3 501.7 324.14 469.03 373.66 478.56"/><polygon class="cls-12" points="310.3 501.7 305.4 527.17 373.66 478.56 310.3 501.7"/><polygon class="cls-13" points="281.48 449.54 310.3 501.7 305.4 527.17 281.48 449.54"/><polygon class="cls-13" points="305.4 527.17 354.17 539.14 373.66 478.56 305.4 527.17"/><polygon class="cls-12" points="305.4 527.17 333.61 553.28 354.17 539.14 305.4 527.17"/><polygon class="cls-12" points="373.66 478.56 403.5 484.3 354.17 539.14 373.66 478.56"/><polygon class="cls-13" points="354.17 539.14 373.25 560.91 333.61 553.28 354.17 539.14"/><polygon class="cls-13" points="358.39 436.38 400.47 449.98 373.66 478.56 358.39 436.38"/><polygon class="cls-14" points="403.5 484.3 373.25 560.91 354.17 539.14 403.5 484.3"/><polygon class="cls-14" points="400.47 449.98 403.5 484.3 373.66 478.56 400.47 449.98"/><polygon class="cls-12" points="403.5 484.3 418.87 461.82 400.47 449.98 403.5 484.3"/><polygon class="cls-13" points="403.5 484.3 419.03 502.51 418.87 461.82 403.5 484.3"/><polygon class="cls-12" points="373.25 560.91 419.03 502.51 403.5 484.3 373.25 560.91"/><polygon class="cls-12" points="373.25 560.91 411.13 561.85 381.87 571.02 373.25 560.91"/><polygon class="cls-14" points="418.87 461.82 445.59 469.72 419.03 502.51 418.87 461.82"/><polygon class="cls-14" points="411.13 561.85 373.25 560.91 419.03 502.51 411.13 561.85"/><polygon class="cls-14" points="333.61 553.28 381.87 571.02 373.25 560.91 333.61 553.28"/><polygon class="cls-13" points="282.21 400.94 286.98 431.93 311.03 402.82 282.21 400.94"/><polygon class="cls-13" points="281.48 449.54 255.94 433.39 286.98 431.93 281.48 449.54"/><polygon class="cls-14" points="282.21 400.94 255.94 433.39 286.98 431.93 282.21 400.94"/><polygon class="cls-13" points="419.03 502.51 420.78 530.18 411.13 561.85 419.03 502.51"/><polygon class="cls-12" points="411.13 561.85 443.06 560.91 420.78 530.18 411.13 561.85"/><polygon class="cls-13" points="418.87 461.82 448.16 431.93 445.59 469.72 418.87 461.82"/><polygon class="cls-12" points="419.03 502.51 462.63 497.07 445.59 469.72 419.03 502.51"/><polygon class="cls-12" points="255.94 433.39 236.72 457.47 281.48 449.54 255.94 433.39"/><polygon class="cls-12" points="305.4 527.17 269.31 490.12 281.48 449.54 305.4 527.17"/><polygon class="cls-13" points="269.31 490.12 236.72 457.47 281.48 449.54 269.31 490.12"/><polygon class="cls-14" points="269.31 490.12 237.92 491.93 236.72 457.47 269.31 490.12"/><polygon class="cls-13" points="236.72 457.47 226.97 513.35 237.92 491.93 236.72 457.47"/><polygon class="cls-13" points="236.72 457.47 255.94 433.39 229.34 433.39 236.72 457.47"/><polygon class="cls-12" points="210.21 443.52 229.34 433.39 236.72 457.47 210.21 443.52"/><polygon class="cls-12" points="214.51 480.93 236.72 457.47 226.97 513.35 214.51 480.93"/><polygon class="cls-13" points="210.21 443.52 205.82 462.57 236.72 457.47 210.21 443.52"/><polygon class="cls-14" points="214.51 480.93 205.82 462.57 236.72 457.47 214.51 480.93"/><polygon class="cls-12" points="282.21 400.94 229.34 433.39 255.94 433.39 282.21 400.94"/><polygon class="cls-14" points="229.34 433.39 253.01 407.31 282.21 400.94 229.34 433.39"/><polygon class="cls-13" points="214.51 431.93 229.34 433.39 210.21 443.52 214.51 431.93"/><polygon class="cls-13" points="411.13 561.85 429.57 573.68 443.06 560.91 411.13 561.85"/><polygon class="cls-12" points="443.06 560.91 429.57 573.68 469.12 562.15 443.06 560.91"/><polygon class="cls-14" points="420.78 530.18 443.06 549.48 443.06 560.91 420.78 530.18"/><polygon class="cls-12" points="253.01 407.31 280.32 389.61 282.21 400.94 253.01 407.31"/><polygon class="cls-14" points="302.81 377.59 282.21 400.94 280.32 389.61 302.81 377.59"/><polygon class="cls-13" points="280.32 389.61 268.31 375.19 283.93 378.8 280.32 389.61"/><polygon class="cls-12" points="302.81 377.59 317.23 370.21 282.21 400.94 302.81 377.59"/><polygon class="cls-12" points="283.93 378.8 302.81 377.59 280.32 389.61 283.93 378.8"/><polygon class="cls-12" points="283.93 378.8 282.66 355.54 268.31 375.19 283.93 378.8"/><polygon class="cls-14" points="282.66 355.54 244.51 379.53 268.31 375.19 282.66 355.54"/><polygon class="cls-14" points="280.32 389.61 254.23 389.27 268.31 375.19 280.32 389.61"/><polygon class="cls-12" points="244.51 379.53 254.23 389.27 268.31 375.19 244.51 379.53"/><polygon class="cls-13" points="265.04 393.04 280.32 389.61 253.01 407.31 265.04 393.04"/><polygon class="cls-12" points="254.23 389.27 280.32 389.61 265.04 393.04 254.23 389.27"/><polygon class="cls-12" points="443.06 560.91 457.91 523.98 443.06 549.48 443.06 560.91"/><polygon class="cls-13" points="469.12 553.08 443.06 560.91 469.12 562.15 469.12 553.08"/><polygon class="cls-14" points="459.07 551.15 457.91 523.98 443.06 560.91 459.07 551.15"/><polygon class="cls-12" points="469.12 553.08 459.07 551.15 443.06 560.91 469.12 553.08"/><polygon class="cls-12" points="457.91 523.98 470.47 536.97 459.07 551.15 457.91 523.98"/><polygon class="cls-12" points="492.42 560.25 469.12 562.15 469.12 553.08 492.42 560.25"/><polygon class="cls-14" points="469.12 553.08 489.67 547.46 492.42 560.25 469.12 553.08"/><polygon class="cls-13" points="469.12 553.08 470.47 536.97 459.07 551.15 469.12 553.08"/><polygon class="cls-12" points="469.12 553.08 488.04 538.71 489.67 547.46 469.12 553.08"/><polygon class="cls-14" points="469.12 553.08 470.47 536.97 480.15 535.37 469.12 553.08"/><polygon class="cls-13" points="480.15 535.37 488.04 538.71 469.12 553.08 480.15 535.37"/><polygon class="cls-13" points="488.04 538.71 489.67 547.46 505.03 540.5 488.04 538.71"/><polygon class="cls-12" points="480.15 535.37 490.44 531.44 488.04 538.71 480.15 535.37"/><polygon class="cls-12" points="505.03 540.5 489.67 547.46 519.04 550.38 505.03 540.5"/><polygon class="cls-13" points="492.42 560.25 489.67 547.46 519.04 550.38 492.42 560.25"/><polygon class="cls-14" points="511.3 558.96 519.04 550.38 492.42 560.25 511.3 558.96"/><polygon class="cls-14" points="519.04 550.38 505.03 540.5 516.88 542.14 519.04 550.38"/><polygon class="cls-14" points="505.03 540.5 488.04 538.71 490.44 531.44 505.03 540.5"/><polygon class="cls-14" points="507.97 484.05 517.95 481.7 516.81 487.88 507.97 484.05"/><polygon class="cls-12" points="516.81 487.88 507.97 484.05 510.36 492.43 516.81 487.88"/><polygon class="cls-13" points="523.15 486.2 517.95 481.7 516.81 487.88 523.15 486.2"/><polygon class="cls-13" points="516.59 492.89 516.81 487.88 510.36 492.43 516.59 492.89"/><polygon class="cls-14" points="523.15 486.2 516.59 492.89 516.81 487.88 523.15 486.2"/><polygon class="cls-14" points="507.97 484.05 506.49 492.12 510.36 492.43 507.97 484.05"/><polygon class="cls-14" points="517.95 481.7 524.36 481.02 523.15 486.2 517.95 481.7"/><polygon class="cls-13" points="507.97 484.05 514.31 480.44 517.95 481.7 507.97 484.05"/><polygon class="cls-12" points="509.99 494.58 516.59 492.89 506.49 492.12 509.99 494.58"/><polygon class="cls-12" points="524.36 481.02 514.31 480.44 517.95 481.7 524.36 481.02"/><polygon class="cls-12" points="523.15 486.2 526.59 483.61 524.36 481.02 523.15 486.2"/><polygon class="cls-12" points="516.59 492.89 524.79 487.07 523.15 486.2 516.59 492.89"/><polygon class="cls-14" points="524.79 487.07 526.59 483.61 523.15 486.2 524.79 487.07"/><polygon class="cls-14" points="445.59 469.72 462.63 484.3 462.63 497.07 445.59 469.72"/><polygon class="cls-14" points="475.62 506.4 467.61 510.08 473.12 504.07 475.62 506.4"/><polygon class="cls-12" points="474.53 500.44 468.3 505.71 473.12 504.07 474.53 500.44"/><polygon class="cls-12" points="467.61 510.08 464.14 509.95 473.12 504.07 467.61 510.08"/><polygon class="cls-13" points="464.14 509.95 468.3 505.71 473.12 504.07 464.14 509.95"/><polygon class="cls-13" points="467.61 510.08 464.14 514.46 464.14 509.95 467.61 510.08"/><polygon class="cls-12" points="475.62 506.4 477.95 510.08 467.61 510.08 475.62 506.4"/><polygon class="cls-14" points="464.14 514.46 477.95 510.08 467.61 510.08 464.14 514.46"/><polygon class="cls-14" points="491.58 501.6 481.91 505.02 482.37 498.75 491.58 501.6"/><polygon class="cls-12" points="482.37 498.75 491.58 501.6 488.28 493.52 482.37 498.75"/><polygon class="cls-13" points="476.26 501.12 481.91 505.02 482.37 498.75 476.26 501.12"/><polygon class="cls-13" points="482.05 493.75 482.37 498.75 488.28 493.52 482.05 493.75"/><polygon class="cls-14" points="476.26 501.12 482.05 493.75 482.37 498.75 476.26 501.12"/><polygon class="cls-14" points="491.58 501.6 492.17 493.41 488.28 493.52 491.58 501.6"/><polygon class="cls-14" points="481.91 505.02 475.62 506.4 476.26 501.12 481.91 505.02"/><polygon class="cls-13" points="491.58 501.6 485.68 505.88 481.91 505.02 491.58 501.6"/><polygon class="cls-12" points="488.42 491.35 482.05 493.75 492.17 493.41 488.42 491.35"/><polygon class="cls-12" points="475.62 506.4 485.68 505.88 481.91 505.02 475.62 506.4"/><polygon class="cls-12" points="476.26 501.12 473.12 504.07 475.62 506.4 476.26 501.12"/><polygon class="cls-12" points="482.05 493.75 474.53 500.44 476.26 501.12 482.05 493.75"/><polygon class="cls-14" points="474.53 500.44 473.12 504.07 476.26 501.12 474.53 500.44"/><polygon class="cls-13" points="475.62 506.4 477.95 510.08 485.68 505.88 475.62 506.4"/><polygon class="cls-12" points="492.17 493.41 503.65 489.94 491.58 501.6 492.17 493.41"/><polygon class="cls-14" points="488.42 491.35 496.2 489.94 492.17 493.41 488.42 491.35"/><polygon class="cls-13" points="503.65 489.94 496.2 489.94 492.17 493.41 503.65 489.94"/><polygon class="cls-14" points="302.81 377.59 291.57 361.34 317.23 370.21 302.81 377.59"/><polygon class="cls-12" points="312.9 352.68 317.23 370.21 291.88 361.44 312.9 352.68"/><polygon class="cls-13" points="291.56 344.64 312.9 352.68 291.88 361.44 291.56 344.64"/><polygon class="cls-13" points="317.23 370.21 319.83 352 312.9 352.68 317.23 370.21"/><polygon class="cls-14" points="286.98 431.93 314.1 412.81 335.33 429.65 286.98 431.93"/><polygon class="cls-13" points="317.99 446.8 335.33 429.65 286.98 431.93 317.99 446.8"/><polygon class="cls-12" points="344.77 414.72 335.33 429.65 314.1 412.81 344.77 414.72"/><polygon class="cls-12" points="314.1 412.81 311.03 402.82 286.98 431.93 314.1 412.81"/><polygon class="cls-13" points="311.03 402.82 344.77 414.72 314.1 412.81 311.03 402.82"/><polygon class="cls-13" points="335.33 429.65 358.39 436.38 344.77 414.72 335.33 429.65"/><polygon class="cls-12" points="317.99 446.8 281.48 449.54 286.98 431.93 317.99 446.8"/><polygon class="cls-12" points="358.39 436.38 317.99 446.8 335.33 429.65 358.39 436.38"/><polygon class="cls-14" points="281.48 449.54 324.14 469.03 317.99 446.8 281.48 449.54"/><polygon class="cls-13" points="324.14 469.03 358.39 436.38 317.99 446.8 324.14 469.03"/><polygon class="cls-12" points="344.77 414.72 375.18 420.57 358.39 436.38 344.77 414.72"/><polygon class="cls-14" points="375.18 420.57 403.14 429.94 358.39 436.38 375.18 420.57"/><polygon class="cls-12" points="400.47 449.98 358.39 436.38 403.14 429.94 400.47 449.98"/><polygon class="cls-12" points="391.11 387.86 403.14 429.94 375.18 420.57 391.11 387.86"/><polygon class="cls-14" points="344.77 414.72 363.98 407.31 375.18 420.57 344.77 414.72"/><polygon class="cls-13" points="391.11 387.86 363.98 407.31 375.18 420.57 391.11 387.86"/><polygon class="cls-12" points="311.03 402.82 363.98 407.31 344.77 414.72 311.03 402.82"/><polygon class="cls-13" points="403.14 429.94 418.87 461.82 400.47 449.98 403.14 429.94"/><polygon class="cls-12" points="418.87 461.82 448.16 431.93 403.14 429.94 418.87 461.82"/><polygon class="cls-13" points="391.11 387.86 419.03 405.14 403.14 429.94 391.11 387.86"/><polygon class="cls-14" points="448.16 431.93 419.03 405.14 403.14 429.94 448.16 431.93"/><polygon class="cls-12" points="311.03 402.82 339.45 365.55 282.21 400.94 311.03 402.82"/><polygon class="cls-12" points="419.03 405.14 425.65 363.05 448.16 431.93 419.03 405.14"/><polygon class="cls-14" points="391.11 387.86 425.65 363.05 419.03 405.14 391.11 387.86"/><polygon class="cls-12" points="391.11 387.86 396.11 356.29 425.65 363.05 391.11 387.86"/><polygon class="cls-14" points="391.11 387.86 359.03 370.9 396.11 356.29 391.11 387.86"/><polygon class="cls-14" points="448.16 431.93 444.59 375.89 425.65 363.05 448.16 431.93"/><polygon class="cls-14" points="396.11 356.29 419.03 334.72 425.65 363.05 396.11 356.29"/><polygon class="cls-13" points="339.45 365.55 282.21 400.94 317.23 370.21 339.45 365.55"/><polygon class="cls-13" points="425.65 363.05 428.81 358.15 444.59 375.89 425.65 363.05"/><polygon class="cls-12" points="396.11 356.29 374.22 345.79 359.03 370.9 396.11 356.29"/><polygon class="cls-12" points="419.03 334.72 395.35 345.79 396.11 356.29 419.03 334.72"/><polygon class="cls-13" points="374.22 345.79 395.35 345.79 396.11 356.29 374.22 345.79"/><polygon class="cls-13" points="395.35 345.79 409.54 332.53 419.03 334.72 395.35 345.79"/><polygon class="cls-14" points="428.81 358.15 431.26 348.88 444.59 375.89 428.81 358.15"/><polygon class="cls-14" points="374.22 345.79 359.03 357.51 359.03 370.9 374.22 345.79"/><polygon class="cls-12" points="428.81 358.15 419.03 334.72 425.65 363.05 428.81 358.15"/><polygon class="cls-12" points="431.26 348.88 456.88 356.74 438.99 339.16 431.26 348.88"/><polygon class="cls-13" points="456.88 356.74 470.02 356.29 438.99 339.16 456.88 356.74"/><polygon class="cls-13" points="431.26 348.88 419.03 334.72 428.81 358.15 431.26 348.88"/><polygon class="cls-12" points="419.03 334.72 428.81 333.3 431.26 348.88 419.03 334.72"/><polygon class="cls-14" points="409.54 332.53 428.81 333.3 419.03 334.72 409.54 332.53"/><polygon class="cls-14" points="438.99 339.16 428.81 333.3 431.26 348.88 438.99 339.16"/><polygon class="cls-13" points="428.81 333.3 451.99 337.68 438.99 339.16 428.81 333.3"/><polygon class="cls-12" points="470.02 356.29 451.99 337.68 438.99 339.16 470.02 356.29"/><polygon class="cls-12" points="317.23 370.21 329.29 354.42 339.45 365.55 317.23 370.21"/><polygon class="cls-14" points="329.29 354.42 319.83 352 317.23 370.21 329.29 354.42"/><polyline class="cls-14" points="339.45 365.55 331.43 339.24 329.29 354.42 339.45 365.88"/><polygon class="cls-12" points="329.29 354.42 323.88 328.8 331.43 339.24 329.29 354.42"/><polygon class="cls-13" points="319.83 352 323.88 328.8 329.29 354.42 319.83 352"/><polygon class="cls-12" points="315.33 336.65 323.88 328.8 319.83 352 315.33 336.65"/><polygon class="cls-14" points="323.88 328.8 334.95 316.44 331.43 339.24 323.88 328.8"/><polygon class="cls-12" points="339.98 323.65 331.43 339.24 334.95 316.44 339.98 323.65"/><polygon class="cls-13" points="323.26 316.27 323.88 328.8 315.33 336.65 323.26 316.27"/><polygon class="cls-12" points="333.22 309.71 323.88 328.8 323.26 316.27 333.22 309.71"/><polygon class="cls-13" points="334.95 316.44 333.22 309.71 323.88 328.8 334.95 316.44"/><polygon class="cls-13" points="339.98 323.65 353.75 327.84 334.95 316.44 339.98 323.65"/><polygon class="cls-12" points="353.75 327.84 359.03 343.73 370.73 339.16 353.75 327.84"/><polygon class="cls-12" points="333.22 309.71 344.35 309.18 334.95 316.44 333.22 309.71"/><polygon class="cls-14" points="334.95 316.44 367.27 306.34 344.35 309.18 334.95 316.44"/><polygon class="cls-14" points="353.75 327.84 363.41 317.72 334.95 316.44 353.75 327.84"/><polygon class="cls-12" points="367.27 306.34 375.99 311.39 334.95 316.44 367.27 306.34"/><polygon class="cls-13" points="363.41 317.72 375.99 311.39 334.95 316.44 363.41 317.72"/><polygon class="cls-13" points="370.73 339.16 363.41 317.72 353.75 327.84 370.73 339.16"/><polygon class="cls-12" points="375.99 311.39 376.67 319.25 363.41 317.72 375.99 311.39"/><polygon class="cls-12" points="370.73 339.16 388.94 330.99 363.41 317.72 370.73 339.16"/><polygon class="cls-14" points="376.67 319.25 392.85 322.14 388.94 330.99 363.41 317.72 376.67 319.25"/><polygon class="cls-14" points="403.58 235.71 427.64 257.05 403.58 273.82 403.58 235.71"/><polygon class="cls-12" points="438.2 234.68 403.58 235.71 421.19 217.87 438.2 234.68"/><polygon class="cls-13" points="427.64 257.05 438.2 234.68 403.58 235.71 427.64 257.05"/><polygon class="cls-12" points="403.58 273.82 439.71 294.32 427.64 257.05 403.58 273.82"/><polygon class="cls-14" points="398.36 286.82 439.71 294.32 403.58 273.82 398.36 286.82"/><polygon class="cls-13" points="407.19 304.66 439.71 294.32 398.36 286.82 407.19 304.66"/><polygon class="cls-12" points="454.5 248.84 464.35 243.95 468.73 253.05 454.5 248.84"/><polygon class="cls-14" points="464.35 243.95 459.46 235.71 471.56 241.89 464.35 243.95"/><polygon class="cls-12" points="451.99 239.83 459.46 235.71 464.35 243.95 451.99 239.83"/><polygon class="cls-12" points="459.46 235.71 465.14 232 471.56 241.89 459.46 235.71"/><polygon class="cls-13" points="459.46 235.71 451.99 239.83 458.17 232 465.14 232 459.46 235.71"/><polygon class="cls-13" points="451.99 239.83 454.5 248.84 464.35 243.95 451.99 239.83"/><polygon class="cls-13" points="471.56 241.89 478.94 244.34 465.14 232 471.56 241.89"/><polygon class="cls-12" points="454.5 248.84 447.63 259.4 451.99 239.83 454.5 248.84"/><polygon class="cls-14" points="459.46 258.4 454.5 248.84 447.63 259.4 459.46 258.4"/><polygon class="cls-12" points="464.35 243.95 477.88 250.55 471.56 241.89 464.35 243.95"/><polygon class="cls-14" points="478.94 244.34 477.88 250.55 471.56 241.89 478.94 244.34"/><polygon class="cls-13" points="468.73 253.05 459.46 258.4 454.5 248.84 468.73 253.05"/><polygon class="cls-13" points="477.88 250.55 468.73 253.05 464.35 243.95 477.88 250.55"/><polygon class="cls-12" points="468.73 253.05 472.56 257.05 459.46 258.4 468.73 253.05"/><polygon class="cls-14" points="477.88 250.55 472.56 257.05 468.73 253.05 477.88 250.55"/><polygon class="cls-12" points="357.23 243.95 403.58 235.71 403.58 273.82 357.23 243.95"/><polygon class="cls-14" points="339.98 228.33 357.23 243.95 334.37 241.89 339.98 228.33"/><polygon class="cls-13" points="367.27 209.35 357.23 243.95 339.98 228.33 367.27 209.35"/><polygon class="cls-12" points="395.35 212.77 367.27 209.35 357.23 243.95 395.35 212.77"/><polygon class="cls-13" points="395.35 212.77 421.19 217.87 357.23 243.95 395.35 212.77"/><polygon class="cls-14" points="403.58 235.71 421.19 217.87 357.23 243.95 403.58 235.71"/><polygon class="cls-13" points="357.23 243.95 371.91 277.68 403.58 273.82 357.23 243.95"/><polygon class="cls-12" points="334.37 241.89 329.29 253.05 357.23 243.95 334.37 241.89"/><polygon class="cls-12" points="357.23 243.95 333.22 286.82 371.91 277.68 357.23 243.95"/><polygon class="cls-12" points="403.58 273.82 398.36 286.82 371.91 277.68 403.58 273.82"/><polygon class="cls-14" points="324.56 281.55 357.23 243.95 333.22 286.82 324.56 281.55"/><polygon class="cls-14" points="329.29 253.05 319.83 262.49 357.23 243.95 329.29 253.05"/><polygon class="cls-12" points="313.71 274.85 357.23 243.95 319.83 262.49 313.71 274.85"/><polygon class="cls-13" points="313.71 274.85 324.56 281.55 357.23 243.95 313.71 274.85"/><polygon class="cls-13" points="329.29 253.05 312.17 257.05 319.83 262.49 329.29 253.05"/><polygon class="cls-12" points="295.24 275.68 319.83 262.49 312.17 257.05 295.24 275.68"/><polygon class="cls-14" points="313.71 274.85 295.24 275.68 319.83 262.49 313.71 274.85"/><polygon class="cls-14" points="298.78 285.82 313.71 274.85 324.56 281.55 298.78 285.82"/><polygon class="cls-12" points="324.56 281.55 324.56 290.81 333.22 286.82 324.56 281.55"/><polygon class="cls-12" points="324.56 281.55 313.71 292.88 298.78 285.82 324.56 281.55"/><polygon class="cls-13" points="295.24 275.68 298.78 285.82 313.71 274.85 295.24 275.68"/><polygon class="cls-13" points="298.78 285.82 313.55 315.32 313.71 292.88 298.78 285.82"/><polygon class="cls-12" points="284.92 294.32 298.78 285.82 295.24 275.68 284.92 294.32"/><polygon class="cls-14" points="298.78 285.82 286.98 316.27 284.92 294.32 298.78 285.82"/><polygon class="cls-12" points="302.23 324.36 298.78 285.82 313.55 315.32 302.23 324.36"/><polygon class="cls-13" points="286.98 316.27 302.23 324.36 298.78 285.82 286.98 316.27"/><polygon class="cls-12" points="302.23 324.36 300.61 339.59 286.98 316.27 302.23 324.36"/><polygon class="cls-14" points="285.64 330.99 286.98 316.27 300.61 339.59 285.64 330.99"/><polygon class="cls-13" points="263.87 322.14 285.64 330.99 286.98 316.27 263.87 322.14"/><polygon class="cls-12" points="621.78 285.94 652.16 321.63 612.44 313.14 621.78 285.94"/><polygon class="cls-13" points="586.06 280.94 597.91 275.45 586.13 263.95 586.06 280.94"/><polygon class="cls-14" points="581.43 293.65 586.06 280.94 572.98 276.7 581.43 293.65"/><polygon class="cls-14" points="631.04 271.66 652.16 321.63 621.78 285.94 631.04 271.66"/><polygon class="cls-13" points="657.99 272.53 631.04 271.66 652.16 321.63 657.99 272.53"/><polygon class="cls-12" points="678.4 263.95 657.99 272.53 652.16 321.63 678.4 263.95"/><polygon class="cls-13" points="612.44 333.43 652.16 321.63 612.44 313.14 612.44 333.43"/><polygon class="cls-13" points="652.16 321.63 689.92 333.43 697.99 299.48 652.16 321.63"/><polygon class="cls-14" points="678.4 263.95 697.99 299.48 652.16 321.63 678.4 263.95"/><polygon class="cls-12" points="612.44 333.43 619.78 351.72 652.16 321.63 612.44 333.43"/><polygon class="cls-12" points="656.46 398.36 637.79 383.35 672.58 363.17 656.46 398.36"/><polygon class="cls-12" points="652.16 321.63 672.58 363.17 689.92 333.43 652.16 321.63"/><polygon class="cls-14" points="619.78 351.72 672.58 363.17 652.16 321.63 619.78 351.72"/><polygon class="cls-13" points="637.79 383.35 619.78 351.72 672.58 363.17 637.79 383.35"/><polygon class="cls-13" points="672.58 363.17 693.01 408.84 656.46 398.36 672.58 363.17"/><polygon class="cls-12" points="708.69 377.25 672.58 363.17 693.01 408.84 708.69 377.25"/><polygon class="cls-14" points="717.9 351.72 672.58 363.17 708.69 377.25 717.9 351.72"/><polygon class="cls-13" points="689.92 333.43 717.9 351.72 672.58 363.17 689.92 333.43"/><polygon class="cls-12" points="708.69 377.25 724.02 380.76 717.9 351.72 708.69 377.25"/><polygon class="cls-12" points="750.27 414.82 724.02 380.76 761.34 383.35 750.27 414.82"/><polygon class="cls-14" points="717.9 351.72 772.33 344.63 724.02 380.76 717.9 351.72"/><polygon class="cls-13" points="761.34 383.35 772.33 344.63 724.02 380.76 761.34 383.35"/><polygon class="cls-14" points="750.27 414.82 761.34 429.1 761.34 383.35 750.27 414.82"/><polygon class="cls-14" points="689.92 333.43 742.11 310.64 717.9 351.72 689.92 333.43"/><polygon class="cls-12" points="757.3 306.91 772.33 344.63 717.9 351.72 757.3 306.91"/><polygon class="cls-12" points="742.11 310.64 743.31 316.46 717.9 351.72 742.11 310.64"/><polygon class="cls-13" points="757.3 306.91 743.31 316.46 717.9 351.72 757.3 306.91"/><polygon class="cls-13" points="689.92 333.43 734.56 280.77 742.11 310.64 689.92 333.43"/><polygon class="cls-12" points="697.99 299.48 734.56 280.77 689.92 333.43 697.99 299.48"/><polygon class="cls-14" points="704.54 258.11 697.99 299.48 734.56 280.77 704.54 258.11"/><polygon class="cls-13" points="678.4 263.95 704.54 258.11 697.99 299.48 678.4 263.95"/><polygon class="cls-12" points="680.48 252.62 678.4 263.95 704.54 258.11 680.48 252.62"/><polygon class="cls-12" points="704.54 241.68 734.56 280.77 704.54 258.11 704.54 241.68"/><polygon class="cls-14" points="677.22 232.19 704.54 258.11 704.54 241.68 677.22 232.19"/><polygon class="cls-12" points="667.2 214.25 677.22 232.19 704.54 241.68 667.2 214.25"/><polygon class="cls-13" points="641.68 227.96 667.2 214.25 677.22 232.19 641.68 227.96"/><polygon class="cls-13" points="680.48 252.62 677.22 232.19 704.54 258.11 680.48 252.62"/><polygon class="cls-12" points="649.4 245.15 677.22 232.19 641.68 227.96 649.4 245.15"/><polygon class="cls-14" points="680.48 252.62 649.4 245.15 677.22 232.19 680.48 252.62"/><polygon class="cls-14" points="641.68 227.96 643.74 239.23 649.4 245.15 641.68 227.96"/><polygon class="cls-14" points="704.54 241.68 727.35 258.11 734.56 280.77 704.54 241.68"/><polygon class="cls-14" points="761.34 383.35 782.8 391.44 772.33 344.63 761.34 383.35"/><polygon class="cls-12" points="792.8 440.68 761.34 383.35 782.8 391.44 792.8 440.68"/><polygon class="cls-12" points="761.34 383.35 785.29 496.65 761.34 429.1 761.34 383.35"/><polygon class="cls-13" points="792.12 466.69 785.29 496.65 761.34 383.35 792.12 466.69"/><polygon class="cls-14" points="792.8 440.68 761.34 383.35 792.12 466.69 792.8 440.68"/><polygon class="cls-12" points="560.4 179.83 572.98 221.29 597.91 195.02 560.4 179.83"/><polygon class="cls-12" points="624.52 213.44 615.77 183.93 597.91 195.02 624.52 213.44"/><polygon class="cls-13" points="589.29 174.56 597.91 195.02 615.77 183.93 589.29 174.56"/><polygon class="cls-14" points="624.52 213.44 641.68 197.44 615.77 183.93 624.52 213.44"/><polygon class="cls-14" points="589.29 174.56 560.4 179.83 597.91 195.02 589.29 174.56"/><polygon class="cls-13" points="572.98 221.29 607.52 239.83 597.91 195.02 572.98 221.29"/><polygon class="cls-13" points="560.4 179.83 547.74 205.75 572.98 221.29 560.4 179.83"/><polygon class="cls-14" points="624.52 213.44 607.52 239.83 597.91 195.02 624.52 213.44"/><polygon class="cls-14" points="641.68 197.44 644.51 213.44 667.2 214.25 641.68 197.44"/><polygon class="cls-12" points="607.52 239.83 633.37 217.61 624.52 213.44 607.52 239.83"/><polygon class="cls-12" points="644.51 213.44 641.68 227.96 667.2 214.25 644.51 213.44"/><polygon class="cls-12" points="572.98 221.29 555.92 229.36 547.74 205.75 572.98 221.29"/><polygon class="cls-12" points="607.52 239.83 632.3 236.7 641.68 246.22 607.52 239.83"/><polygon class="cls-12" points="572.98 221.29 586.13 263.95 607.52 239.83 572.98 221.29"/><polygon class="cls-12" points="559.53 249.07 572.98 221.29 563.09 262.04 559.53 249.07"/><polygon class="cls-13" points="633.37 217.61 641.68 197.44 624.52 213.44 633.37 217.61"/><polygon class="cls-12" points="644.51 213.44 633.37 217.61 641.68 197.44 644.51 213.44"/><polygon class="cls-14" points="641.68 227.96 633.37 217.61 644.51 213.44 641.68 227.96"/><polygon class="cls-14" points="641.68 246.22 607.52 254.13 607.52 239.83 641.68 246.22"/><polygon class="cls-14" points="563.09 262.04 586.13 263.95 572.98 221.29 563.09 262.04"/><polygon class="cls-12" points="572.98 276.7 586.13 263.95 586.06 280.94 572.98 276.7"/><polygon class="cls-13" points="607.52 254.13 586.13 263.95 607.52 239.83 607.52 254.13"/><polygon class="cls-12" points="607.52 254.13 597.91 275.45 586.13 263.95 607.52 254.13"/><polygon class="cls-12" points="581.43 293.65 596.83 296.65 586.06 280.94 581.43 293.65"/><polygon class="cls-12" points="597.91 275.45 602.53 285.17 586.06 280.94 597.91 275.45"/><polygon class="cls-13" points="596.83 296.65 602.53 285.17 586.06 280.94 596.83 296.65"/><polygon class="cls-13" points="551.64 242.62 572.98 221.29 555.92 229.36 551.64 242.62"/><polygon class="cls-14" points="559.53 249.07 551.64 242.62 572.98 221.29 559.53 249.07"/><polygon class="cls-12" points="545.93 253.05 551.64 242.62 559.53 249.07 545.93 253.05"/><polygon class="cls-12" points="538.31 238.17 527.92 231.12 509.24 232.98 538.31 238.17"/><polygon class="cls-14" points="545.93 253.05 538.31 238.17 551.64 242.62 545.93 253.05"/><polygon class="cls-14" points="531.6 262.91 531.6 246.22 525.12 245.15 531.6 262.91"/><polygon class="cls-13" points="545.93 253.05 537.78 248.84 538.31 238.17 545.93 253.05"/><polygon class="cls-12" points="531.6 246.22 538.31 238.17 537.78 248.84 531.6 246.22"/><polygon class="cls-12" points="531.6 262.91 537.78 248.84 531.6 246.22 531.6 262.91"/><polygon class="cls-13" points="509.24 232.98 531.6 246.22 538.31 238.17 509.24 232.98"/><polygon class="cls-12" points="525.12 245.15 509.24 232.98 531.6 246.22 525.12 245.15"/><polygon class="cls-14" points="433.71 185.84 439.54 182.32 446.07 186.61 433.71 185.84"/><polygon class="cls-13" points="433.71 185.84 443.41 190.38 446.07 186.61 433.71 185.84"/><polygon class="cls-13" points="426.75 179.65 435.17 178.56 439.54 182.32 426.75 179.65"/><polygon class="cls-12" points="449.85 181.26 439.54 182.32 446.07 186.61 449.85 181.26"/><polygon class="cls-12" points="426.75 179.65 433.71 185.84 439.54 182.32 426.75 179.65"/><polygon class="cls-12" points="429.77 191.22 433.71 185.84 443.41 190.38 429.77 191.22"/><polygon class="cls-14" points="435.17 178.56 449.85 181.26 439.54 182.32 435.17 178.56"/><polygon class="cls-14" points="421.19 185.1 433.71 185.84 426.75 179.65 421.19 185.1"/><polygon class="cls-14" points="446.07 186.61 448.98 191.22 443.41 190.38 446.07 186.61"/><polygon class="cls-14" points="419.26 190.38 433.71 185.84 429.77 191.22 419.26 190.38"/><polygon class="cls-14" points="446.07 186.61 455.65 187.13 449.85 181.26 446.07 186.61"/><polygon class="cls-13" points="419.26 190.38 421.19 185.1 433.71 185.84 419.26 190.38"/><polygon class="cls-12" points="448.98 191.22 455.65 187.13 446.07 186.61 448.98 191.22"/><g class="cls-3"><path class="cls-4" d="M665.72,321.63A16.32,16.32,0,1,1,649.4,305.3,16.33,16.33,0,0,1,665.72,321.63Z"/></g><g class="cls-5"><path class="cls-4" d="M662.06,321.33a12.58,12.58,0,1,1-12.58-12.58A12.58,12.58,0,0,1,662.06,321.33Z"/></g><g class="cls-5"><path class="cls-4" d="M659.46,321.33a10.06,10.06,0,1,1-10.06-10.07A10.06,10.06,0,0,1,659.46,321.33Z"/></g><g class="cls-5"><path class="cls-4" d="M657.28,321.12a7.66,7.66,0,1,1-7.66-7.67A7.66,7.66,0,0,1,657.28,321.12Z"/></g><g class="cls-6"><path class="cls-4" d="M655.7,321.12a6.13,6.13,0,1,1-6.13-6.13A6.14,6.14,0,0,1,655.7,321.12Z"/></g><g class="cls-7"><path class="cls-8" d="M654.19,321.12a4.6,4.6,0,1,1-4.6-4.6A4.6,4.6,0,0,1,654.19,321.12Z"/></g><g class="cls-3"><ellipse class="cls-4" cx="702.62" cy="258.31" rx="6.55" ry="6.56" transform="translate(-0.44 1.2) rotate(-0.1)"/></g><g class="cls-5"><path class="cls-4" d="M707.7,258.19a5,5,0,1,1-5.05-5.05A5,5,0,0,1,707.7,258.19Z"/></g><g class="cls-5"><path class="cls-4" d="M706.65,258.19a4,4,0,1,1-4-4A4,4,0,0,1,706.65,258.19Z"/></g><g class="cls-5"><path class="cls-4" d="M705.78,258.11A3.08,3.08,0,1,1,702.7,255,3.08,3.08,0,0,1,705.78,258.11Z"/></g><g class="cls-6"><path class="cls-4" d="M705.14,258.11a2.46,2.46,0,1,1-2.46-2.47A2.46,2.46,0,0,1,705.14,258.11Z"/></g><g class="cls-7"><path class="cls-8" d="M704.54,258.11a1.85,1.85,0,1,1-1.85-1.85A1.85,1.85,0,0,1,704.54,258.11Z"/></g><g class="cls-3"><path class="cls-4" d="M788.45,349.74a16.32,16.32,0,1,1-16.32-16.33A16.33,16.33,0,0,1,788.45,349.74Z"/></g><g class="cls-5"><path class="cls-4" d="M784.79,349.44a12.58,12.58,0,1,1-12.57-12.58A12.57,12.57,0,0,1,784.79,349.44Z"/></g><g class="cls-5"><path class="cls-4" d="M782.19,349.44a10.06,10.06,0,1,1-10.06-10.07A10.05,10.05,0,0,1,782.19,349.44Z"/></g><g class="cls-5"><path class="cls-4" d="M780,349.23a7.67,7.67,0,1,1-7.67-7.67A7.67,7.67,0,0,1,780,349.23Z"/></g><g class="cls-6"><path class="cls-4" d="M778.43,349.23a6.13,6.13,0,1,1-6.13-6.14A6.13,6.13,0,0,1,778.43,349.23Z"/></g><g class="cls-7"><path class="cls-8" d="M776.92,349.23a4.6,4.6,0,1,1-4.59-4.6A4.6,4.6,0,0,1,776.92,349.23Z"/></g><g class="cls-3"><path class="cls-4" d="M727.76,353.82a8.22,8.22,0,1,1-8.21-8.22A8.22,8.22,0,0,1,727.76,353.82Z"/></g><g class="cls-5"><path class="cls-4" d="M725.92,353.66a6.33,6.33,0,1,1-6.33-6.33A6.34,6.34,0,0,1,725.92,353.66Z"/></g><g class="cls-5"><path class="cls-4" d="M724.61,353.66a5.07,5.07,0,1,1-5.06-5.06A5.07,5.07,0,0,1,724.61,353.66Z"/></g><g class="cls-5"><path class="cls-4" d="M723.51,353.56a3.86,3.86,0,1,1-3.85-3.86A3.85,3.85,0,0,1,723.51,353.56Z"/></g><g class="cls-6"><path class="cls-4" d="M722.72,353.56a3.09,3.09,0,1,1-3.09-3.09A3.09,3.09,0,0,1,722.72,353.56Z"/></g><g class="cls-7"><path class="cls-8" d="M722,353.56a2.32,2.32,0,1,1-2.32-2.31A2.32,2.32,0,0,1,722,353.56Z"/></g><g class="cls-3"><path class="cls-4" d="M769.65,383.56A6.55,6.55,0,1,1,763.1,377,6.55,6.55,0,0,1,769.65,383.56Z"/></g><g class="cls-5"><path class="cls-4" d="M768.19,383.43a5,5,0,1,1-5.05-5.05A5,5,0,0,1,768.19,383.43Z"/></g><g class="cls-5"><path class="cls-4" d="M767.14,383.43a4,4,0,1,1-4-4A4,4,0,0,1,767.14,383.43Z"/></g><g class="cls-5"><path class="cls-4" d="M766.27,383.35a3.08,3.08,0,1,1-3.08-3.08A3.08,3.08,0,0,1,766.27,383.35Z"/></g><g class="cls-6"><path class="cls-4" d="M765.63,383.35a2.46,2.46,0,1,1-2.46-2.46A2.46,2.46,0,0,1,765.63,383.35Z"/></g><g class="cls-7"><path class="cls-8" d="M765,383.35a1.85,1.85,0,1,1-1.85-1.84A1.84,1.84,0,0,1,765,383.35Z"/></g><g class="cls-3"><path class="cls-4" d="M606.93,197a8.64,8.64,0,1,1-8.64-8.64A8.64,8.64,0,0,1,606.93,197Z"/></g><g class="cls-5"><path class="cls-4" d="M605,196.88a6.66,6.66,0,1,1-6.65-6.66A6.66,6.66,0,0,1,605,196.88Z"/></g><g class="cls-5"><path class="cls-4" d="M603.62,196.88a5.33,5.33,0,1,1-5.33-5.33A5.33,5.33,0,0,1,603.62,196.88Z"/></g><g class="cls-5"><path class="cls-4" d="M602.47,196.77a4.06,4.06,0,1,1-4.06-4.06A4.05,4.05,0,0,1,602.47,196.77Z"/></g><g class="cls-6"><path class="cls-4" d="M601.63,196.77a3.25,3.25,0,1,1-3.25-3.25A3.24,3.24,0,0,1,601.63,196.77Z"/></g><g class="cls-7"><path class="cls-8" d="M600.83,196.77a2.43,2.43,0,1,1-2.43-2.43A2.43,2.43,0,0,1,600.83,196.77Z"/></g><g class="cls-3"><path class="cls-4" d="M751.67,314.56a6.55,6.55,0,1,1-6.55-6.56A6.55,6.55,0,0,1,751.67,314.56Z"/></g><g class="cls-5"><path class="cls-4" d="M750.2,314.44a5,5,0,1,1-5.05-5.05A5,5,0,0,1,750.2,314.44Z"/></g><g class="cls-5"><path class="cls-4" d="M749.15,314.44a4,4,0,1,1-4-4.05A4,4,0,0,1,749.15,314.44Z"/></g><g class="cls-5"><path class="cls-4" d="M748.28,314.35a3.08,3.08,0,1,1-3.08-3.08A3.08,3.08,0,0,1,748.28,314.35Z"/></g><g class="cls-6"><path class="cls-4" d="M747.64,314.35a2.46,2.46,0,1,1-2.46-2.46A2.46,2.46,0,0,1,747.64,314.35Z"/></g><g class="cls-7"><path class="cls-8" d="M747,314.35a1.85,1.85,0,1,1-1.85-1.84A1.85,1.85,0,0,1,747,314.35Z"/></g><g class="cls-3"><path class="cls-4" d="M407,237a6.56,6.56,0,1,1-6.55-6.56A6.55,6.55,0,0,1,407,237Z"/></g><g class="cls-5"><path class="cls-4" d="M405.55,236.83a5.05,5.05,0,1,1-5.05-5.06A5,5,0,0,1,405.55,236.83Z"/></g><g class="cls-5"><path class="cls-4" d="M404.5,236.83a4,4,0,1,1-4-4.05A4,4,0,0,1,404.5,236.83Z"/></g><g class="cls-5"><path class="cls-4" d="M403.63,236.74a3.08,3.08,0,1,1-3.08-3.08A3.08,3.08,0,0,1,403.63,236.74Z"/></g><g class="cls-6"><path class="cls-4" d="M403,236.74a2.46,2.46,0,1,1-2.46-2.46A2.46,2.46,0,0,1,403,236.74Z"/></g><g class="cls-7"><path class="cls-8" d="M402.39,236.74a1.85,1.85,0,1,1-1.85-1.84A1.84,1.84,0,0,1,402.39,236.74Z"/></g><g class="cls-3"><path class="cls-4" d="M445.54,340.4a6.56,6.56,0,1,1-6.55-6.56A6.55,6.55,0,0,1,445.54,340.4Z"/></g><g class="cls-5"><path class="cls-4" d="M444.07,340.27a5.05,5.05,0,1,1-5.05-5A5.06,5.06,0,0,1,444.07,340.27Z"/></g><g class="cls-5"><path class="cls-4" d="M443,340.27a4,4,0,1,1-4-4A4,4,0,0,1,443,340.27Z"/></g><g class="cls-5"><path class="cls-4" d="M442.15,340.19a3.08,3.08,0,1,1-3.08-3.08A3.08,3.08,0,0,1,442.15,340.19Z"/></g><g class="cls-6"><path class="cls-4" d="M441.51,340.19a2.46,2.46,0,1,1-2.46-2.46A2.46,2.46,0,0,1,441.51,340.19Z"/></g><g class="cls-7"><path class="cls-8" d="M440.91,340.19a1.85,1.85,0,1,1-1.85-1.84A1.84,1.84,0,0,1,440.91,340.19Z"/></g><g class="cls-3"><path class="cls-4" d="M419.9,431.93a16.32,16.32,0,1,1-16.32-16.32A16.33,16.33,0,0,1,419.9,431.93Z"/></g><g class="cls-5"><path class="cls-4" d="M416.23,431.63a12.57,12.57,0,1,1-12.57-12.58A12.57,12.57,0,0,1,416.23,431.63Z"/></g><g class="cls-5"><path class="cls-4" d="M413.63,431.63a10.06,10.06,0,1,1-10.05-10.06A10.06,10.06,0,0,1,413.63,431.63Z"/></g><g class="cls-5"><path class="cls-4" d="M411.46,431.42a7.66,7.66,0,1,1-7.66-7.66A7.66,7.66,0,0,1,411.46,431.42Z"/></g><g class="cls-6"><path class="cls-4" d="M409.88,431.42a6.13,6.13,0,1,1-6.13-6.13A6.13,6.13,0,0,1,409.88,431.42Z"/></g><g class="cls-7"><path class="cls-8" d="M408.36,431.42a4.59,4.59,0,1,1-4.59-4.59A4.58,4.58,0,0,1,408.36,431.42Z"/></g><g class="cls-3"><path class="cls-4" d="M375.35,241.68A16.32,16.32,0,1,1,359,225.35,16.33,16.33,0,0,1,375.35,241.68Z"/></g><g class="cls-5"><path class="cls-4" d="M371.69,241.38a12.58,12.58,0,1,1-12.58-12.58A12.58,12.58,0,0,1,371.69,241.38Z"/></g><g class="cls-5"><path class="cls-4" d="M369.09,241.38A10.06,10.06,0,1,1,359,231.31,10.06,10.06,0,0,1,369.09,241.38Z"/></g><g class="cls-5"><circle class="cls-4" cx="359.25" cy="241.17" r="7.66"/></g><g class="cls-6"><path class="cls-4" d="M365.33,241.17A6.13,6.13,0,1,1,359.2,235,6.14,6.14,0,0,1,365.33,241.17Z"/></g><g class="cls-7"><path class="cls-8" d="M363.82,241.17a4.6,4.6,0,1,1-4.6-4.6A4.6,4.6,0,0,1,363.82,241.17Z"/></g><g class="cls-3"><path class="cls-4" d="M575.84,182.32A16.32,16.32,0,1,1,559.53,166,16.32,16.32,0,0,1,575.84,182.32Z"/></g><g class="cls-5"><path class="cls-4" d="M572.18,182a12.57,12.57,0,1,1-12.57-12.58A12.57,12.57,0,0,1,572.18,182Z"/></g><g class="cls-5"><path class="cls-4" d="M569.58,182A10.06,10.06,0,1,1,559.53,172,10.05,10.05,0,0,1,569.58,182Z"/></g><g class="cls-5"><path class="cls-4" d="M567.41,181.81a7.67,7.67,0,1,1-7.66-7.67A7.66,7.66,0,0,1,567.41,181.81Z"/></g><g class="cls-6"><path class="cls-4" d="M565.83,181.81a6.13,6.13,0,1,1-6.13-6.13A6.14,6.14,0,0,1,565.83,181.81Z"/></g><g class="cls-7"><path class="cls-8" d="M564.31,181.81a4.59,4.59,0,1,1-4.59-4.6A4.59,4.59,0,0,1,564.31,181.81Z"/></g><g class="cls-3"><path class="cls-4" d="M296.64,453a16.32,16.32,0,1,1-16.32-16.32A16.33,16.33,0,0,1,296.64,453Z"/></g><g class="cls-5"><path class="cls-4" d="M293,452.74a12.58,12.58,0,1,1-12.57-12.58A12.57,12.57,0,0,1,293,452.74Z"/></g><g class="cls-5"><path class="cls-4" d="M290.38,452.74a10.06,10.06,0,1,1-10.06-10.06A10.07,10.07,0,0,1,290.38,452.74Z"/></g><g class="cls-5"><path class="cls-4" d="M288.2,452.53a7.66,7.66,0,1,1-7.66-7.66A7.66,7.66,0,0,1,288.2,452.53Z"/></g><g class="cls-6"><path class="cls-4" d="M286.62,452.53a6.13,6.13,0,1,1-6.13-6.13A6.14,6.14,0,0,1,286.62,452.53Z"/></g><g class="cls-7"><path class="cls-8" d="M285.11,452.53a4.6,4.6,0,1,1-4.6-4.59A4.59,4.59,0,0,1,285.11,452.53Z"/></g><g class="cls-3"><path class="cls-4" d="M367.9,537.37a16.32,16.32,0,1,1-16.31-16.32A16.32,16.32,0,0,1,367.9,537.37Z"/></g><g class="cls-5"><path class="cls-4" d="M364.24,537.07a12.57,12.57,0,1,1-12.57-12.58A12.57,12.57,0,0,1,364.24,537.07Z"/></g><g class="cls-5"><path class="cls-4" d="M361.64,537.07A10.06,10.06,0,1,1,351.59,527,10.06,10.06,0,0,1,361.64,537.07Z"/></g><g class="cls-5"><circle class="cls-4" cx="351.81" cy="536.86" r="7.66" transform="translate(-194.12 874.42) rotate(-88.49)"/></g><g class="cls-6"><path class="cls-4" d="M357.88,536.86a6.13,6.13,0,1,1-6.13-6.13A6.12,6.12,0,0,1,357.88,536.86Z"/></g><g class="cls-7"><path class="cls-8" d="M356.37,536.86a4.59,4.59,0,1,1-4.59-4.59A4.58,4.58,0,0,1,356.37,536.86Z"/></g><g class="cls-3"><path class="cls-4" d="M605.44,547.46a16.32,16.32,0,1,1-16.31-16.33A16.32,16.32,0,0,1,605.44,547.46Z"/></g><g class="cls-5"><ellipse class="cls-4" cx="589.21" cy="547.16" rx="12.57" ry="12.58"/></g><g class="cls-5"><path class="cls-4" d="M599.18,547.16a10.06,10.06,0,1,1-10-10.07A10.05,10.05,0,0,1,599.18,547.16Z"/></g><g class="cls-5"><path class="cls-4" d="M597,547a7.67,7.67,0,1,1-7.66-7.67A7.66,7.66,0,0,1,597,547Z"/></g><g class="cls-6"><path class="cls-4" d="M595.42,547a6.13,6.13,0,1,1-6.13-6.13A6.13,6.13,0,0,1,595.42,547Z"/></g><g class="cls-7"><path class="cls-8" d="M593.91,547a4.59,4.59,0,1,1-4.59-4.6A4.59,4.59,0,0,1,593.91,547Z"/></g><g class="cls-3"><path class="cls-4" d="M677.4,579.22a16.32,16.32,0,1,1-16.32-16.33A16.33,16.33,0,0,1,677.4,579.22Z"/></g><g class="cls-5"><path class="cls-4" d="M673.74,578.92a12.58,12.58,0,1,1-12.57-12.58A12.57,12.57,0,0,1,673.74,578.92Z"/></g><g class="cls-5"><path class="cls-4" d="M671.14,578.92a10.06,10.06,0,1,1-10.06-10.07A10.05,10.05,0,0,1,671.14,578.92Z"/></g><g class="cls-5"><path class="cls-4" d="M669,578.71A7.66,7.66,0,1,1,661.3,571,7.66,7.66,0,0,1,669,578.71Z"/></g><g class="cls-6"><path class="cls-4" d="M667.38,578.71a6.13,6.13,0,1,1-6.13-6.13A6.14,6.14,0,0,1,667.38,578.71Z"/></g><g class="cls-7"><path class="cls-8" d="M665.87,578.71a4.6,4.6,0,1,1-4.59-4.6A4.6,4.6,0,0,1,665.87,578.71Z"/></g><g class="cls-3"><path class="cls-4" d="M299,400.94a16.32,16.32,0,1,1-16.32-16.33A16.33,16.33,0,0,1,299,400.94Z"/></g><g class="cls-5"><path class="cls-4" d="M295.32,400.64a12.58,12.58,0,1,1-12.58-12.58A12.58,12.58,0,0,1,295.32,400.64Z"/></g><g class="cls-5"><path class="cls-4" d="M292.72,400.64a10.06,10.06,0,1,1-10.06-10.07A10.06,10.06,0,0,1,292.72,400.64Z"/></g><g class="cls-5"><path class="cls-4" d="M290.54,400.43a7.66,7.66,0,1,1-7.66-7.67A7.66,7.66,0,0,1,290.54,400.43Z"/></g><g class="cls-6"><path class="cls-4" d="M289,400.43a6.13,6.13,0,1,1-6.13-6.13A6.14,6.14,0,0,1,289,400.43Z"/></g><g class="cls-7"><path class="cls-8" d="M287.44,400.43a4.59,4.59,0,1,1-4.59-4.6A4.59,4.59,0,0,1,287.44,400.43Z"/></g><g class="cls-3"><path class="cls-4" d="M334.21,469.2a6.55,6.55,0,1,1-6.55-6.56A6.55,6.55,0,0,1,334.21,469.2Z"/></g><g class="cls-5"><path class="cls-4" d="M332.74,469.08a5.05,5.05,0,1,1-5.05-5.05A5,5,0,0,1,332.74,469.08Z"/></g><g class="cls-5"><path class="cls-4" d="M331.69,469.08a4,4,0,1,1-4-4A4,4,0,0,1,331.69,469.08Z"/></g><g class="cls-5"><path class="cls-4" d="M330.82,469a3.08,3.08,0,1,1-3.08-3.07A3.08,3.08,0,0,1,330.82,469Z"/></g><g class="cls-6"><path class="cls-4" d="M330.19,469a2.47,2.47,0,1,1-2.47-2.46A2.47,2.47,0,0,1,330.19,469Z"/></g><g class="cls-7"><path class="cls-8" d="M329.58,469a1.85,1.85,0,1,1-1.85-1.84A1.85,1.85,0,0,1,329.58,469Z"/></g><g class="cls-3"><path class="cls-4" d="M402,360a6.55,6.55,0,1,1-6.55-6.56A6.55,6.55,0,0,1,402,360Z"/></g><g class="cls-5"><path class="cls-4" d="M400.53,359.88a5,5,0,1,1-5-5.05A5,5,0,0,1,400.53,359.88Z"/></g><g class="cls-5"><path class="cls-4" d="M399.49,359.88a4,4,0,1,1-4-4A4,4,0,0,1,399.49,359.88Z"/></g><g class="cls-5"><path class="cls-4" d="M398.62,359.79a3.08,3.08,0,1,1-3.08-3.07A3.08,3.08,0,0,1,398.62,359.79Z"/></g><g class="cls-6"><path class="cls-4" d="M398,359.79a2.46,2.46,0,1,1-2.46-2.46A2.46,2.46,0,0,1,398,359.79Z"/></g><g class="cls-7"><path class="cls-8" d="M397.37,359.79a1.84,1.84,0,1,1-1.84-1.84A1.84,1.84,0,0,1,397.37,359.79Z"/></g><g class="cls-3"><path class="cls-4" d="M472.67,244.16a6.55,6.55,0,1,1-6.55-6.56A6.55,6.55,0,0,1,472.67,244.16Z"/></g><g class="cls-5"><path class="cls-4" d="M471.2,244a5.05,5.05,0,1,1-5.05-5.05A5,5,0,0,1,471.2,244Z"/></g><g class="cls-5"><path class="cls-4" d="M470.15,244a4,4,0,1,1-4-4A4,4,0,0,1,470.15,244Z"/></g><g class="cls-5"><path class="cls-4" d="M469.28,244a3.08,3.08,0,1,1-3.08-3.08A3.08,3.08,0,0,1,469.28,244Z"/></g><g class="cls-6"><path class="cls-4" d="M468.64,244a2.46,2.46,0,1,1-2.46-2.46A2.46,2.46,0,0,1,468.64,244Z"/></g><g class="cls-7"><path class="cls-8" d="M468,244a1.85,1.85,0,1,1-1.85-1.84A1.84,1.84,0,0,1,468,244Z"/></g><g class="cls-3"><path class="cls-4" d="M437.81,184.19a6.55,6.55,0,1,1-6.55-6.55A6.56,6.56,0,0,1,437.81,184.19Z"/></g><g class="cls-5"><path class="cls-4" d="M436.34,184.07a5,5,0,1,1-5-5A5,5,0,0,1,436.34,184.07Z"/></g><g class="cls-5"><path class="cls-4" d="M435.3,184.07a4,4,0,1,1-4-4A4,4,0,0,1,435.3,184.07Z"/></g><g class="cls-5"><path class="cls-4" d="M434.43,184a3.08,3.08,0,1,1-3.08-3.08A3.07,3.07,0,0,1,434.43,184Z"/></g><g class="cls-6"><path class="cls-4" d="M433.79,184a2.46,2.46,0,1,1-2.46-2.46A2.46,2.46,0,0,1,433.79,184Z"/></g><g class="cls-7"><path class="cls-8" d="M433.18,184a1.85,1.85,0,1,1-1.84-1.85A1.84,1.84,0,0,1,433.18,184Z"/></g><g class="cls-3"><path class="cls-4" d="M524.43,483.76a6.56,6.56,0,1,1-6.55-6.56A6.56,6.56,0,0,1,524.43,483.76Z"/></g><g class="cls-5"><path class="cls-4" d="M523,483.63a5,5,0,1,1-5.05-5.05A5,5,0,0,1,523,483.63Z"/></g><g class="cls-5"><path class="cls-4" d="M521.91,483.63a4,4,0,1,1-4-4A4,4,0,0,1,521.91,483.63Z"/></g><g class="cls-5"><path class="cls-4" d="M521,483.55a3.08,3.08,0,1,1-3.08-3.08A3.08,3.08,0,0,1,521,483.55Z"/></g><g class="cls-6"><path class="cls-4" d="M520.4,483.55a2.46,2.46,0,1,1-2.46-2.46A2.46,2.46,0,0,1,520.4,483.55Z"/></g><g class="cls-7"><path class="cls-8" d="M519.8,483.55A1.85,1.85,0,1,1,518,481.7,1.84,1.84,0,0,1,519.8,483.55Z"/></g><g class="cls-3"><path class="cls-4" d="M467.39,551.36a6.55,6.55,0,1,1-6.55-6.56A6.55,6.55,0,0,1,467.39,551.36Z"/></g><g class="cls-5"><path class="cls-4" d="M465.92,551.24a5.05,5.05,0,1,1-5.05-5.06A5,5,0,0,1,465.92,551.24Z"/></g><g class="cls-5"><path class="cls-4" d="M464.88,551.24a4,4,0,1,1-4-4A4,4,0,0,1,464.88,551.24Z"/></g><g class="cls-5"><path class="cls-4" d="M464,551.15a3.08,3.08,0,1,1-3.07-3.08A3.08,3.08,0,0,1,464,551.15Z"/></g><g class="cls-6"><path class="cls-4" d="M463.37,551.15a2.47,2.47,0,1,1-2.47-2.46A2.47,2.47,0,0,1,463.37,551.15Z"/></g><g class="cls-7"><path class="cls-8" d="M462.76,551.15a1.85,1.85,0,1,1-1.84-1.84A1.84,1.84,0,0,1,462.76,551.15Z"/></g><g class="cls-3"><circle class="cls-4" cx="480.15" cy="500.44" r="6.55"/></g><g class="cls-5"><path class="cls-4" d="M485.23,500.32a5.05,5.05,0,1,1-5.05-5.06A5.06,5.06,0,0,1,485.23,500.32Z"/></g><g class="cls-5"><path class="cls-4" d="M484.18,500.32a4,4,0,1,1-4-4.05A4,4,0,0,1,484.18,500.32Z"/></g><g class="cls-5"><path class="cls-4" d="M483.31,500.23a3.08,3.08,0,1,1-3.07-3.08A3.08,3.08,0,0,1,483.31,500.23Z"/></g><g class="cls-6"><path class="cls-4" d="M482.68,500.23a2.47,2.47,0,1,1-2.47-2.46A2.47,2.47,0,0,1,482.68,500.23Z"/></g><g class="cls-7"><path class="cls-8" d="M482.07,500.23a1.85,1.85,0,1,1-1.85-1.84A1.84,1.84,0,0,1,482.07,500.23Z"/></g><g class="cls-3"><path class="cls-4" d="M592.54,279.31a6.55,6.55,0,1,1-6.55-6.56A6.55,6.55,0,0,1,592.54,279.31Z"/></g><g class="cls-5"><path class="cls-4" d="M591.07,279.18a5.05,5.05,0,1,1-5.05-5.05A5.06,5.06,0,0,1,591.07,279.18Z"/></g><g class="cls-5"><path class="cls-4" d="M590,279.18a4,4,0,1,1-4-4A4,4,0,0,1,590,279.18Z"/></g><g class="cls-5"><path class="cls-4" d="M589.15,279.1a3.08,3.08,0,1,1-3.08-3.08A3.08,3.08,0,0,1,589.15,279.1Z"/></g><g class="cls-6"><path class="cls-4" d="M588.51,279.1a2.46,2.46,0,1,1-2.46-2.46A2.46,2.46,0,0,1,588.51,279.1Z"/></g><g class="cls-7"><path class="cls-8" d="M587.91,279.1a1.85,1.85,0,1,1-1.85-1.84A1.84,1.84,0,0,1,587.91,279.1Z"/></g><g class="cls-3"><path class="cls-4" d="M309.36,292.79a6.55,6.55,0,1,1-6.55-6.55A6.56,6.56,0,0,1,309.36,292.79Z"/></g><g class="cls-5"><path class="cls-4" d="M307.89,292.67a5,5,0,1,1-5.05-5.05A5,5,0,0,1,307.89,292.67Z"/></g><g class="cls-5"><path class="cls-4" d="M306.85,292.67a4,4,0,1,1-4-4A4,4,0,0,1,306.85,292.67Z"/></g><g class="cls-5"><path class="cls-4" d="M306,292.58a3.08,3.08,0,1,1-3.07-3.07A3.07,3.07,0,0,1,306,292.58Z"/></g><g class="cls-6"><path class="cls-4" d="M305.34,292.58a2.47,2.47,0,1,1-2.46-2.46A2.47,2.47,0,0,1,305.34,292.58Z"/></g><g class="cls-7"><path class="cls-8" d="M304.73,292.58a1.85,1.85,0,1,1-1.84-1.84A1.85,1.85,0,0,1,304.73,292.58Z"/></g><g class="cls-3"><path class="cls-4" d="M683.69,230.55a6.55,6.55,0,1,1-6.55-6.55A6.56,6.56,0,0,1,683.69,230.55Z"/></g><g class="cls-5"><path class="cls-4" d="M682.22,230.43a5,5,0,1,1-5-5.05A5,5,0,0,1,682.22,230.43Z"/></g><g class="cls-5"><path class="cls-4" d="M681.18,230.43a4,4,0,1,1-4-4A4,4,0,0,1,681.18,230.43Z"/></g><g class="cls-5"><path class="cls-4" d="M680.31,230.34a3.08,3.08,0,1,1-3.08-3.07A3.08,3.08,0,0,1,680.31,230.34Z"/></g><g class="cls-6"><path class="cls-4" d="M679.67,230.34a2.46,2.46,0,1,1-2.46-2.46A2.47,2.47,0,0,1,679.67,230.34Z"/></g><g class="cls-7"><path class="cls-8" d="M679.06,230.34a1.84,1.84,0,1,1-1.84-1.84A1.84,1.84,0,0,1,679.06,230.34Z"/></g><g class="cls-3"><path class="cls-4" d="M370,317.43a6.55,6.55,0,1,1-6.55-6.56A6.55,6.55,0,0,1,370,317.43Z"/></g><g class="cls-5"><path class="cls-4" d="M368.49,317.31a5.05,5.05,0,1,1-5.05-5.05A5,5,0,0,1,368.49,317.31Z"/></g><g class="cls-5"><path class="cls-4" d="M367.45,317.31a4,4,0,1,1-4-4A4,4,0,0,1,367.45,317.31Z"/></g><g class="cls-5"><path class="cls-4" d="M366.57,317.22a3.08,3.08,0,1,1-3.07-3.07A3.07,3.07,0,0,1,366.57,317.22Z"/></g><g class="cls-6"><path class="cls-4" d="M365.94,317.22a2.47,2.47,0,1,1-2.46-2.46A2.46,2.46,0,0,1,365.94,317.22Z"/></g><g class="cls-7"><path class="cls-8" d="M365.33,317.22a1.85,1.85,0,1,1-1.84-1.84A1.85,1.85,0,0,1,365.33,317.22Z"/></g><g class="cls-3"><path class="cls-4" d="M620.61,500.44a6.55,6.55,0,1,1-6.55-6.56A6.55,6.55,0,0,1,620.61,500.44Z"/></g><g class="cls-5"><path class="cls-4" d="M619.14,500.32a5,5,0,1,1-5-5.06A5.06,5.06,0,0,1,619.14,500.32Z"/></g><g class="cls-5"><path class="cls-4" d="M618.1,500.32a4,4,0,1,1-4-4.05A4,4,0,0,1,618.1,500.32Z"/></g><g class="cls-5"><path class="cls-4" d="M617.22,500.23a3.08,3.08,0,1,1-3.07-3.08A3.07,3.07,0,0,1,617.22,500.23Z"/></g><g class="cls-6"><path class="cls-4" d="M616.59,500.23a2.46,2.46,0,1,1-2.46-2.46A2.46,2.46,0,0,1,616.59,500.23Z"/></g><g class="cls-7"><path class="cls-8" d="M616,500.23a1.85,1.85,0,1,1-1.84-1.84A1.84,1.84,0,0,1,616,500.23Z"/></g><g class="cls-3"><path class="cls-4" d="M648.51,631.48a6.55,6.55,0,1,1-6.55-6.55A6.56,6.56,0,0,1,648.51,631.48Z"/></g><g class="cls-5"><path class="cls-4" d="M647,631.36a5,5,0,1,1-5-5.05A5,5,0,0,1,647,631.36Z"/></g><g class="cls-5"><path class="cls-4" d="M646,631.36a4,4,0,1,1-4-4A4,4,0,0,1,646,631.36Z"/></g><g class="cls-5"><path class="cls-4" d="M645.12,631.28A3.08,3.08,0,1,1,642,628.2,3.07,3.07,0,0,1,645.12,631.28Z"/></g><g class="cls-6"><path class="cls-4" d="M644.48,631.28a2.46,2.46,0,1,1-2.46-2.47A2.46,2.46,0,0,1,644.48,631.28Z"/></g><g class="cls-7"><path class="cls-8" d="M643.88,631.28a1.85,1.85,0,1,1-1.85-1.85A1.85,1.85,0,0,1,643.88,631.28Z"/></g><g class="cls-3"><path class="cls-4" d="M670.13,500.67a6.55,6.55,0,1,1-6.55-6.55A6.56,6.56,0,0,1,670.13,500.67Z"/></g><g class="cls-5"><path class="cls-4" d="M668.66,500.55a5,5,0,1,1-5-5.05A5,5,0,0,1,668.66,500.55Z"/></g><g class="cls-5"><path class="cls-4" d="M667.62,500.55a4,4,0,1,1-4-4A4,4,0,0,1,667.62,500.55Z"/></g><g class="cls-5"><path class="cls-4" d="M666.74,500.47a3.08,3.08,0,1,1-3.07-3.08A3.06,3.06,0,0,1,666.74,500.47Z"/></g><g class="cls-6"><path class="cls-4" d="M666.11,500.47a2.46,2.46,0,1,1-2.46-2.46A2.46,2.46,0,0,1,666.11,500.47Z"/></g><g class="cls-7"><path class="cls-8" d="M665.5,500.47a1.85,1.85,0,1,1-1.84-1.85A1.84,1.84,0,0,1,665.5,500.47Z"/></g><g class="cls-3"><path class="cls-4" d="M746.93,283.23a16.32,16.32,0,1,1-16.32-16.33A16.32,16.32,0,0,1,746.93,283.23Z"/></g><g class="cls-5"><path class="cls-4" d="M743.27,282.92a12.58,12.58,0,1,1-12.58-12.58A12.58,12.58,0,0,1,743.27,282.92Z"/></g><g class="cls-5"><path class="cls-4" d="M740.66,282.92a10.06,10.06,0,1,1-10-10.06A10.06,10.06,0,0,1,740.66,282.92Z"/></g><g class="cls-5"><path class="cls-4" d="M738.49,282.71a7.66,7.66,0,1,1-7.66-7.66A7.66,7.66,0,0,1,738.49,282.71Z"/></g><g class="cls-6"><path class="cls-4" d="M736.91,282.71a6.13,6.13,0,1,1-6.13-6.13A6.13,6.13,0,0,1,736.91,282.71Z"/></g><g class="cls-7"><path class="cls-8" d="M735.39,282.71a4.59,4.59,0,1,1-4.59-4.59A4.58,4.58,0,0,1,735.39,282.71Z"/></g><g class="cls-3"><path class="cls-4" d="M339.58,333.3A16.32,16.32,0,1,1,323.26,317,16.33,16.33,0,0,1,339.58,333.3Z"/></g><g class="cls-5"><path class="cls-4" d="M335.92,333a12.58,12.58,0,1,1-12.58-12.58A12.58,12.58,0,0,1,335.92,333Z"/></g><g class="cls-5"><path class="cls-4" d="M333.32,333a10.06,10.06,0,1,1-10.06-10.06A10.07,10.07,0,0,1,333.32,333Z"/></g><g class="cls-5"><path class="cls-4" d="M331.14,332.79a7.66,7.66,0,1,1-7.66-7.66A7.66,7.66,0,0,1,331.14,332.79Z"/></g><g class="cls-6"><path class="cls-4" d="M329.56,332.79a6.13,6.13,0,1,1-6.13-6.13A6.14,6.14,0,0,1,329.56,332.79Z"/></g><g class="cls-7"><path class="cls-8" d="M328,332.79a4.59,4.59,0,1,1-4.59-4.59A4.58,4.58,0,0,1,328,332.79Z"/></g><g class="cls-3"><path class="cls-4" d="M539.27,533.64A16.32,16.32,0,1,1,523,517.31,16.32,16.32,0,0,1,539.27,533.64Z"/></g><g class="cls-5"><path class="cls-4" d="M535.61,533.34A12.57,12.57,0,1,1,523,520.76,12.57,12.57,0,0,1,535.61,533.34Z"/></g><g class="cls-5"><path class="cls-4" d="M533,533.34A10.06,10.06,0,1,1,523,523.27,10.05,10.05,0,0,1,533,533.34Z"/></g><g class="cls-5"><circle class="cls-4" cx="523.18" cy="533.13" r="7.66"/></g><g class="cls-6"><path class="cls-4" d="M529.25,533.13a6.13,6.13,0,1,1-6.13-6.13A6.13,6.13,0,0,1,529.25,533.13Z"/></g><g class="cls-7"><path class="cls-8" d="M527.74,533.13a4.59,4.59,0,1,1-4.59-4.6A4.59,4.59,0,0,1,527.74,533.13Z"/></g><g class="cls-3"><path class="cls-4" d="M702.36,644.37A16.32,16.32,0,1,1,686,628,16.32,16.32,0,0,1,702.36,644.37Z"/></g><g class="cls-5"><path class="cls-4" d="M698.7,644.06a12.58,12.58,0,1,1-12.57-12.58A12.58,12.58,0,0,1,698.7,644.06Z"/></g><g class="cls-5"><path class="cls-4" d="M696.1,644.06A10.06,10.06,0,1,1,686,634,10.07,10.07,0,0,1,696.1,644.06Z"/></g><g class="cls-5"><path class="cls-4" d="M693.92,643.85a7.66,7.66,0,1,1-7.66-7.66A7.66,7.66,0,0,1,693.92,643.85Z"/></g><g class="cls-6"><path class="cls-4" d="M692.34,643.85a6.13,6.13,0,1,1-6.13-6.13A6.13,6.13,0,0,1,692.34,643.85Z"/></g><g class="cls-7"><path class="cls-8" d="M690.83,643.85a4.6,4.6,0,1,1-4.6-4.59A4.6,4.6,0,0,1,690.83,643.85Z"/></g><g class="cls-3"><path class="cls-4" d="M336.68,502a16.32,16.32,0,1,1-16.32-16.33A16.33,16.33,0,0,1,336.68,502Z"/></g><g class="cls-5"><path class="cls-4" d="M333,501.7a12.57,12.57,0,1,1-12.57-12.58A12.57,12.57,0,0,1,333,501.7Z"/></g><g class="cls-5"><path class="cls-4" d="M330.41,501.7a10.06,10.06,0,1,1-10.05-10.06A10.05,10.05,0,0,1,330.41,501.7Z"/></g><g class="cls-5"><path class="cls-4" d="M328.24,501.49a7.67,7.67,0,1,1-7.66-7.67A7.66,7.66,0,0,1,328.24,501.49Z"/></g><g class="cls-6"><path class="cls-4" d="M326.66,501.49a6.13,6.13,0,1,1-6.13-6.13A6.14,6.14,0,0,1,326.66,501.49Z"/></g><g class="cls-7"><path class="cls-8" d="M325.14,501.49a4.59,4.59,0,1,1-4.59-4.59A4.59,4.59,0,0,1,325.14,501.49Z"/></g><g class="cls-3"><path class="cls-4" d="M804.77,425.55a16.32,16.32,0,1,1-16.32-16.33A16.32,16.32,0,0,1,804.77,425.55Z"/></g><g class="cls-5"><path class="cls-4" d="M801.1,425.24a12.57,12.57,0,1,1-12.57-12.58A12.58,12.58,0,0,1,801.1,425.24Z"/></g><g class="cls-5"><path class="cls-4" d="M798.5,425.24a10.06,10.06,0,1,1-10-10.06A10.06,10.06,0,0,1,798.5,425.24Z"/></g><g class="cls-5"><path class="cls-4" d="M796.33,425a7.67,7.67,0,1,1-7.66-7.66A7.67,7.67,0,0,1,796.33,425Z"/></g><g class="cls-6"><path class="cls-4" d="M794.75,425a6.13,6.13,0,1,1-6.13-6.13A6.13,6.13,0,0,1,794.75,425Z"/></g><g class="cls-7"><path class="cls-8" d="M793.23,425a4.59,4.59,0,1,1-4.59-4.59A4.58,4.58,0,0,1,793.23,425Z"/></g><g class="cls-3"><path class="cls-4" d="M440.24,265.38a16.32,16.32,0,1,1-16.32-16.32A16.33,16.33,0,0,1,440.24,265.38Z"/></g><g class="cls-5"><path class="cls-4" d="M436.58,265.08A12.58,12.58,0,1,1,424,252.5,12.57,12.57,0,0,1,436.58,265.08Z"/></g><g class="cls-5"><path class="cls-4" d="M434,265.08A10.06,10.06,0,1,1,423.92,255,10.07,10.07,0,0,1,434,265.08Z"/></g><g class="cls-5"><circle class="cls-4" cx="424.14" cy="264.87" r="7.66" transform="translate(94.97 641.3) rotate(-80.82)"/></g><g class="cls-6"><circle class="cls-4" cx="424.09" cy="264.87" r="6.13" transform="translate(-60.09 140.04) rotate(-17.53)"/></g><g class="cls-7"><path class="cls-8" d="M428.71,264.87a4.6,4.6,0,1,1-4.6-4.59A4.6,4.6,0,0,1,428.71,264.87Z"/></g><g class="cls-3"><path class="cls-4" d="M589.1,226.39a16.32,16.32,0,1,1-16.31-16.32A16.32,16.32,0,0,1,589.1,226.39Z"/></g><g class="cls-5"><path class="cls-4" d="M585.44,226.09a12.57,12.57,0,1,1-12.57-12.58A12.57,12.57,0,0,1,585.44,226.09Z"/></g><g class="cls-5"><path class="cls-4" d="M582.84,226.09A10.06,10.06,0,1,1,572.78,216,10.06,10.06,0,0,1,582.84,226.09Z"/></g><g class="cls-5"><path class="cls-4" d="M580.67,225.88a7.67,7.67,0,1,1-7.67-7.66A7.66,7.66,0,0,1,580.67,225.88Z"/></g><g class="cls-6"><path class="cls-4" d="M579.08,225.88a6.13,6.13,0,1,1-6.13-6.13A6.12,6.12,0,0,1,579.08,225.88Z"/></g><g class="cls-7"><path class="cls-8" d="M577.57,225.88a4.59,4.59,0,1,1-4.59-4.59A4.59,4.59,0,0,1,577.57,225.88Z"/></g><g class="cls-3"><path class="cls-4" d="M679.58,362.62a9.11,9.11,0,1,1-9.11-9.11A9.11,9.11,0,0,1,679.58,362.62Z"/></g><g class="cls-5"><path class="cls-4" d="M677.54,362.45a7,7,0,1,1-7-7A7,7,0,0,1,677.54,362.45Z"/></g><g class="cls-5"><path class="cls-4" d="M676.09,362.45a5.62,5.62,0,1,1-5.62-5.61A5.62,5.62,0,0,1,676.09,362.45Z"/></g><g class="cls-5"><path class="cls-4" d="M674.87,362.34a4.28,4.28,0,1,1-4.27-4.28A4.27,4.27,0,0,1,674.87,362.34Z"/></g><g class="cls-6"><path class="cls-4" d="M674,362.34a3.43,3.43,0,1,1-3.42-3.43A3.42,3.42,0,0,1,674,362.34Z"/></g><g class="cls-7"><path class="cls-8" d="M673.14,362.34a2.56,2.56,0,1,1-2.56-2.57A2.56,2.56,0,0,1,673.14,362.34Z"/></g><circle class="cls-15" cx="843.23" cy="567.43" r="66.44" transform="matrix(0.21, -0.98, 0.98, 0.21, 110.7, 1271.99)"/><path class="cls-16" d="M897.83,564.86a49,49,0,1,1-49.05-49.05A49,49,0,0,1,897.83,564.86Z"/><path class="cls-17" d="M848.78,531.21c-2.1,14.91,0,33.65-26.58,35.91,7.87,3.68,16.67,6.88,22.16,14.26,4.89,6.56,8.86,17.61,9.68,25.64,1.5-8.68-.51-16.77,4.85-25.62a25.14,25.14,0,0,1,18.36-12.11c-8.5-4.7-15.9-4-21-14.13a74.61,74.61,0,0,1-5-12c-1.26-4.18-.81-10.64-3.55-13.69Z"/><path class="cls-18" d="M664.43,183.16A318.53,318.53,0,0,1,782.87,431.29c0,176.25-142.87,319.13-319.13,319.13A317.67,317.67,0,0,1,317.48,715a317.75,317.75,0,0,0,200.68,71c176.25,0,319.13-142.88,319.13-319.13C837.29,343.33,767.09,236.21,664.43,183.16Z"/><circle class="cls-15" cx="349.95" cy="150.88" r="66.44"/><circle class="cls-16" cx="355.51" cy="148.31" r="49.04" transform="translate(-1.57 3.83) rotate(-0.62)"/><path class="cls-17" d="M355.51,114.66c-2.11,14.91,0,33.65-26.59,35.91,7.87,3.68,16.67,6.88,22.16,14.26,4.89,6.56,8.86,17.61,9.69,25.63,1.49-8.67-.52-16.76,4.84-25.61A25.16,25.16,0,0,1,384,152.74c-8.49-4.7-15.89-4-21.05-14.13a74.61,74.61,0,0,1-5-12c-1.26-4.18-.81-10.64-3.54-13.69Z"/><circle class="cls-15" cx="162.78" cy="426.16" r="66.44" transform="translate(-283.91 518.78) rotate(-80.81)"/><path class="cls-16" d="M217.38,423.59a49,49,0,1,1-49-49A49,49,0,0,1,217.38,423.59Z"/><path class="cls-17" d="M168.33,390c-2.1,14.9,0,33.64-26.58,35.91,7.87,3.67,16.67,6.88,22.16,14.26,4.89,6.56,8.86,17.61,9.68,25.63,1.5-8.68-.51-16.77,4.85-25.62A25.14,25.14,0,0,1,196.8,428c-8.5-4.71-15.9-4-21.05-14.13a74.71,74.71,0,0,1-5-12c-1.26-4.17-.82-10.64-3.55-13.68Z"/><path class="cls-19" d="M273.71,306.16c-6.1,13.75-10.2,29.18-6.66,43.8s16.68,27.67,31.7,26.93c13.06-.64,23.71-11,30.12-22.43s9.92-24.25,16.45-35.58c20.24-35.13,63.73-47.94,96.47-71.87,4.16-3,8.27-6.4,10.81-10.89,10.81-19.14-10.8-38-27.87-42.2-20.73-5-40.07,7.81-57.71,17.84C328.09,233.92,292.22,264.46,273.71,306.16Z"/><path class="cls-19" d="M254.24,399.09a56.66,56.66,0,0,0-7.44,24.76c-.67,9,.68,18.64,6.53,25.47s17.17,9.41,24,3.6c2.94-2.48,4.7-6.06,6.21-9.6a115.77,115.77,0,0,0,7.52-25.58c.73-4.21,1.21-8.58.16-12.72C286.47,386.17,264.05,382.66,254.24,399.09Z"/><g id="suport"><path class="cls-20" d="M894.12,873.16C894.12,887.41,717.67,899,500,899s-394.12-11.54-394.12-25.79S282.34,847.38,500,847.38,894.12,858.92,894.12,873.16Z"/><path class="cls-21" d="M978.21,880.28c0,19.49-214.1,35.28-478.21,35.28S21.79,899.77,21.79,880.28,235.89,845,500,845,978.21,860.8,978.21,880.28Z"/><path class="cls-22" d="M291.24,786.77c-7.29,4.12-9.59,13.3-11.84,21.37s-5.24,16.16-10.5,22.7-13.18,11.4-21.57,11.28c-4.9-.07-10-1.77-14.6-.22-6.22,2.08-9.34,9.84-7.55,16.16s7.44,11,13.64,13.15,12.93,2.15,19.48,1.75c7.12-.43,14.33-1.33,20.9-4.12,14.52-6.17,23.83-20.62,29.6-35.31,3.11-7.9,5.52-16.22,10.44-23.14,6.25-8.77,16.07-14.48,26.34-17.71s21.09-4.21,31.82-5.17Z"/><path class="cls-23" d="M235.15,841.39a12.65,12.65,0,0,0-1.89.38C233.9,841.66,234.53,841.55,235.15,841.39Z"/><path class="cls-23" d="M291.24,786.77l-.24.15,68.37.6c-10.73,1-21.55,1.93-31.82,5.16s-20.09,8.94-26.34,17.72c-4.92,6.91-7.33,15.24-10.44,23.14-5.77,14.68-15.08,29.13-29.6,35.3a55.79,55.79,0,0,1-16.51,3.78,64.72,64.72,0,0,0,13.64.35c7.12-.44,14.33-1.34,20.9-4.13,14.52-6.17,23.83-20.62,29.6-35.3,3.11-7.9,5.52-16.23,10.44-23.14,6.25-8.78,16.07-14.49,26.34-17.72s21.09-4.21,31.82-5.16Z"/><path class="cls-22" d="M724.85,786.77c7.29,4.12,9.59,13.3,11.84,21.37s5.24,16.16,10.5,22.7,13.18,11.4,21.57,11.28c4.91-.07,10-1.77,14.6-.22,6.22,2.08,9.34,9.84,7.55,16.16s-7.44,11-13.64,13.15-12.93,2.15-19.48,1.75c-7.12-.43-14.33-1.33-20.9-4.12-14.52-6.17-23.83-20.62-29.6-35.31-3.11-7.9-5.52-16.22-10.44-23.14-6.25-8.77-16.07-14.48-26.34-17.71s-21.09-4.21-31.82-5.17Z"/><path class="cls-23" d="M721.54,808.14c2.26,8.09,5.24,16.16,10.51,22.7s13.17,11.4,21.57,11.28c2.94,0,5.94-.67,8.87-.83a30.56,30.56,0,0,1-15.3-10.45c-5.26-6.54-8.24-14.61-10.5-22.7s-4.55-17.25-11.84-21.37l-14.94.12C717,791.08,719.31,800.15,721.54,808.14Z"/><path class="cls-23" d="M783.36,841.9c-4.65-1.55-9.69.15-14.6.22h0c5.86,2.34,8.75,9.81,7,15.94-1.79,6.32-7.44,11-13.64,13.15a34.27,34.27,0,0,1-6.93,1.57c.86.07,1.73.13,2.59.18,6.55.4,13.28.41,19.48-1.75s11.85-6.83,13.64-13.15S789.58,844,783.36,841.9Z"/><path class="cls-22" d="M493.9,774.37c1.44,12.26,2.86,24.65,1.6,36.94s-5.44,24.63-13.88,33.65c-3.68,3.93-8.37,7.68-9,13-.67,5.53,3.58,10.72,8.68,13s10.86,2.25,16.44,2.21l25.1-.2c5.18-.05,10.49-.11,15.32-2s9.18-5.89,9.87-11-2.33-10-5.87-13.82-7.78-7-10.52-11.36c-4-6.39-4.29-14.34-4.46-21.87q-.46-21.06-.95-42.14Z"/><path class="cls-23" d="M542.14,846.16c-3.54-3.77-7.78-7-10.52-11.36-4-6.39-4.29-14.33-4.46-21.87q-.46-21.06-.95-42.13l-14.79,1.63.92,40.5c.17,7.54.46,15.48,4.45,21.87,2.75,4.39,7,7.59,10.52,11.36s6.56,8.69,5.87,13.82-5,9.17-9.87,11-10.14,1.91-15.31,2l-16.26.13c2,.09,4,.08,6,.07l25.1-.2c5.18-.05,10.49-.11,15.32-2s9.18-5.89,9.87-11S545.68,849.94,542.14,846.16Z"/><rect class="cls-24" x="291.75" y="743.27" width="435.46" height="34.02"/><rect class="cls-25" x="278.59" y="777.29" width="461.59" height="11.16"/><rect class="cls-26" x="615.73" y="743.27" width="93.15" height="34.02"/><rect class="cls-27" x="278.59" y="784.62" width="461.59" height="4.28"/><path class="cls-28" d="M308.38,751.87c-3.82,3.64-5,10.09-1.93,14.4,3.62,5.12,10.93,5.52,17.21,5.42l19.52-.3L370,771c3.68-.06,7.47-.14,10.86-1.57s6.32-4.58,6.37-8.26-2.75-6.84-6-8.39-7-1.79-10.68-2l-35.51-2C326.86,748.23,314.92,745.53,308.38,751.87Z"/><path class="cls-28" d="M414,753.18c-4.33-2-11.85-1.58-11.85-1.58a9.31,9.31,0,0,0-7.06,15.24c3.24,3.93,9.08,4.55,14.1,3.66,4.56-.8,9.58-3.33,10.33-7.9C420.13,758.88,417.43,754.74,414,753.18Z"/><path class="cls-29" d="M251.92,847.42a19.29,19.29,0,0,0-19.71,6.42,5.6,5.6,0,0,0-1.46,3.22c-.06,3,3.7,4.46,6.71,4.78,6.7.72,13.87.13,19.46-3.64,2.49-1.67,4.72-4.31,4.5-7.3a5.74,5.74,0,0,0-7.16-4.81Z"/><path class="cls-29" d="M483.21,850.63a11.26,11.26,0,0,0-4.49,1.88,4.37,4.37,0,0,0-1.74,4.3c.49,1.9,2.53,3,4.45,3.38,5.06,1.13,10.28-.43,15.44-.92,6.57-.63,13.27.49,19.74-.78a4.09,4.09,0,0,0,2.75-1.42c3.57-5.38-10.82-8.46-14-8.52A89,89,0,0,0,483.21,850.63Z"/><path class="cls-29" d="M768.35,851.11a6,6,0,0,0-4.77-4.22c-2.42-.36-9.48-.59-9.48-.59a17.58,17.58,0,0,0-8.41,1.53c-2.54,1.1-4.58,3.83-4,6.54a6.24,6.24,0,0,0,4.33,4.28,18.6,18.6,0,0,0,6.32.57l6.72-.18c2.58-.07,5.37-.22,7.36-1.86A6,6,0,0,0,768.35,851.11Z"/><path class="cls-15" d="M445.37,759.26a35.54,35.54,0,1,1-35.54-35.54A35.54,35.54,0,0,1,445.37,759.26Z"/><path class="cls-16" d="M439,757.88a26.24,26.24,0,1,1-26.24-26.23A26.24,26.24,0,0,1,439,757.88Z"/><path class="cls-17" d="M412.8,739.88c-1.13,8,0,18-14.22,19.22,4.21,2,8.92,3.68,11.85,7.62a31.36,31.36,0,0,1,5.18,13.71c.81-4.64-.27-9,2.6-13.7a13.44,13.44,0,0,1,9.82-6.47c-4.55-2.52-8.51-2.13-11.26-7.56a39.4,39.4,0,0,1-2.68-6.41c-.68-2.23-.44-5.69-1.9-7.32Z"/></g></svg>